<svg id="Layer_1" data-name="Layer 1" xmlns="http://www.w3.org/2000/svg" viewBox="0 0 260 260"><defs><style>.cls-1{fill:#64ff5f;}</style></defs><rect width="260" height="260"/><path class="cls-1" d="M75.68,133.54q0,14.75-.1,29.48v3.59l2,.65v26.86h-6v6.52h6v8.25H42.14V206H52.42V175.41l-3.94-.48V51.18H75.69l33,76H82.35L85,133.61l.06,0H75.63v-6.22h6.85l-6.32-14.45-.49.16V127.4H65.56v6.14Zm105.1-6.07,6.44-14.58.59.11v14.33H204.7v6.37H188v33l3.9.33V196.3l-3.87.24V208.9h29.06V182.19H204.61V177.8h12.45V158.54l-2.05-.38V51.1H187.72l-33,76.14h2.66c5.23,0,10.45,0,15.68,0,2.61,0,5.22.1,7.82.16Zm-29.17,6.08-8.35,19.66h-6.88v22.56h-6.76V161.28h-5.9c-.34-.36-.54-.49-.61-.66q-5.81-13.53-11.59-27.08l.07.05-26.6,0,.06,0c1.84,4.1,3.69,8.2,5.5,12.2l4.25.2v18.91h8.42v21.05h16.9v16.71h31.5V181.47h12.71V164.6h8.31V136.47h4.21c.38-.93.71-1.72,1.19-2.88h-26.5Zm-40.09,0h40.09l-.07,0,2.77-6H109.05l2.54,6Zm105.87,44.61v3.7h14.47v-3.7Zm-36.54-50.74c-.75,2-1.51,3.92-2.32,6h8.93v-5.95h-6.68Z"/></svg>