<svg id="Layer_1" data-name="Layer 1" xmlns="http://www.w3.org/2000/svg" viewBox="0 0 260 260"><defs><style>.cls-1{fill:#2cff63;}</style></defs><rect width="260" height="260" rx="52.13"/><path class="cls-1" d="M208.05,84V47.18H185.64l-10.14-.09V47h-11V93h9.24v48.73H161.31L128.62,82.18h-7.35l-10.62-18h8.06l-9.31-17H63.14v17h-9.3V84h9.3v25.26H37.5v7.22H63.14V167h-9.3v46H97.45V188.64H75.63v-4.51H97.45V125.49h17.23l23.46,43.3h-10.3l10.66,19h9.91L162.09,213h46V186.84H199.8V169.7h8.25v-46H220.5V84ZM92,77.67H80V67.75H92ZM120.29,114H97.41v-4.75h22.88Zm65.35,45.77H162.77v-7.22h22.87Z"/></svg>